<mxfile host="app.diagrams.net" modified="2022-02-17T05:14:33.189Z" agent="5.0 (Windows NT 10.0; Win64; x64) AppleWebKit/537.36 (KHTML, like Gecko) Chrome/98.0.4758.80 Safari/537.36 Edg/98.0.1108.50" etag="DASSAk88gdhbVMbKIVqe" version="16.5.6" type="github">
  <diagram name="Page-1" id="aaaa8250-4180-3840-79b5-4cada1eebb92">
    <mxGraphModel dx="2369" dy="1346" grid="1" gridSize="10" guides="1" tooltips="1" connect="1" arrows="1" fold="1" page="1" pageScale="1" pageWidth="850" pageHeight="1100" background="none" math="0" shadow="0">
      <root>
        <mxCell id="0" />
        <mxCell id="1" parent="0" />
        <mxCell id="0sAIdvepXm3ZQ7K2AfYi-3" value="" style="swimlane;startSize=0;swimlaneFillColor=#DAE8FC;fillColor=#dae8fc;strokeColor=#6c8ebf;" vertex="1" parent="1">
          <mxGeometry x="850" y="80" width="200" height="200" as="geometry" />
        </mxCell>
        <mxCell id="0sAIdvepXm3ZQ7K2AfYi-4" value="150.158.23.172" style="text;html=1;align=center;verticalAlign=middle;resizable=0;points=[];autosize=1;strokeColor=none;fillColor=none;" vertex="1" parent="0sAIdvepXm3ZQ7K2AfYi-3">
          <mxGeometry x="10" y="10" width="100" height="20" as="geometry" />
        </mxCell>
        <mxCell id="0sAIdvepXm3ZQ7K2AfYi-1" value="InfluxDB" style="shape=dataStorage;whiteSpace=wrap;html=1;fixedSize=1;" vertex="1" parent="0sAIdvepXm3ZQ7K2AfYi-3">
          <mxGeometry x="50" y="60" width="100" height="80" as="geometry" />
        </mxCell>
        <mxCell id="0sAIdvepXm3ZQ7K2AfYi-5" value="" style="swimlane;startSize=0;swimlaneFillColor=#DAE8FC;fillColor=#dae8fc;strokeColor=#6c8ebf;" vertex="1" parent="1">
          <mxGeometry x="1120" y="80" width="510" height="340" as="geometry" />
        </mxCell>
        <mxCell id="0sAIdvepXm3ZQ7K2AfYi-6" value="190" style="text;html=1;align=center;verticalAlign=middle;resizable=0;points=[];autosize=1;strokeColor=none;fillColor=none;" vertex="1" parent="0sAIdvepXm3ZQ7K2AfYi-5">
          <mxGeometry x="10" y="10" width="40" height="20" as="geometry" />
        </mxCell>
        <mxCell id="0sAIdvepXm3ZQ7K2AfYi-54" style="edgeStyle=orthogonalEdgeStyle;rounded=0;orthogonalLoop=1;jettySize=auto;html=1;entryX=1;entryY=0.5;entryDx=0;entryDy=0;" edge="1" parent="0sAIdvepXm3ZQ7K2AfYi-5" source="0sAIdvepXm3ZQ7K2AfYi-7" target="0sAIdvepXm3ZQ7K2AfYi-52">
          <mxGeometry relative="1" as="geometry" />
        </mxCell>
        <mxCell id="0sAIdvepXm3ZQ7K2AfYi-7" value="Device Simulator" style="rounded=1;whiteSpace=wrap;html=1;" vertex="1" parent="0sAIdvepXm3ZQ7K2AfYi-5">
          <mxGeometry x="370" y="70" width="120" height="60" as="geometry" />
        </mxCell>
        <mxCell id="0sAIdvepXm3ZQ7K2AfYi-55" style="edgeStyle=orthogonalEdgeStyle;rounded=0;orthogonalLoop=1;jettySize=auto;html=1;" edge="1" parent="0sAIdvepXm3ZQ7K2AfYi-5" source="0sAIdvepXm3ZQ7K2AfYi-51" target="0sAIdvepXm3ZQ7K2AfYi-52">
          <mxGeometry relative="1" as="geometry" />
        </mxCell>
        <mxCell id="0sAIdvepXm3ZQ7K2AfYi-51" value="Pharos" style="rounded=1;whiteSpace=wrap;html=1;" vertex="1" parent="0sAIdvepXm3ZQ7K2AfYi-5">
          <mxGeometry x="210" y="70" width="120" height="60" as="geometry" />
        </mxCell>
        <mxCell id="0sAIdvepXm3ZQ7K2AfYi-56" style="edgeStyle=orthogonalEdgeStyle;rounded=0;orthogonalLoop=1;jettySize=auto;html=1;entryX=0.5;entryY=1;entryDx=0;entryDy=0;" edge="1" parent="0sAIdvepXm3ZQ7K2AfYi-5" source="0sAIdvepXm3ZQ7K2AfYi-52" target="0sAIdvepXm3ZQ7K2AfYi-51">
          <mxGeometry relative="1" as="geometry" />
        </mxCell>
        <mxCell id="0sAIdvepXm3ZQ7K2AfYi-52" value="NATS" style="rounded=1;whiteSpace=wrap;html=1;" vertex="1" parent="0sAIdvepXm3ZQ7K2AfYi-5">
          <mxGeometry x="210" y="170" width="120" height="60" as="geometry" />
        </mxCell>
        <mxCell id="0sAIdvepXm3ZQ7K2AfYi-64" style="edgeStyle=orthogonalEdgeStyle;rounded=0;orthogonalLoop=1;jettySize=auto;html=1;" edge="1" parent="0sAIdvepXm3ZQ7K2AfYi-5" source="0sAIdvepXm3ZQ7K2AfYi-63">
          <mxGeometry relative="1" as="geometry">
            <mxPoint x="210" y="210" as="targetPoint" />
            <Array as="points">
              <mxPoint x="130" y="210" />
              <mxPoint x="210" y="210" />
            </Array>
          </mxGeometry>
        </mxCell>
        <mxCell id="0sAIdvepXm3ZQ7K2AfYi-63" value="NATS Proxy" style="rounded=1;whiteSpace=wrap;html=1;" vertex="1" parent="0sAIdvepXm3ZQ7K2AfYi-5">
          <mxGeometry x="70" y="250" width="120" height="60" as="geometry" />
        </mxCell>
        <mxCell id="0sAIdvepXm3ZQ7K2AfYi-9" value="" style="swimlane;startSize=0;rounded=1;fillColor=#dae8fc;strokeColor=#6c8ebf;swimlaneFillColor=#DAE8FC;" vertex="1" parent="1">
          <mxGeometry x="40" y="80" width="680" height="790" as="geometry" />
        </mxCell>
        <mxCell id="0sAIdvepXm3ZQ7K2AfYi-10" value="Logan" style="text;html=1;align=center;verticalAlign=middle;resizable=0;points=[];autosize=1;strokeColor=none;fillColor=none;" vertex="1" parent="0sAIdvepXm3ZQ7K2AfYi-9">
          <mxGeometry x="10" y="10" width="50" height="20" as="geometry" />
        </mxCell>
        <mxCell id="0sAIdvepXm3ZQ7K2AfYi-26" style="edgeStyle=orthogonalEdgeStyle;rounded=0;orthogonalLoop=1;jettySize=auto;html=1;" edge="1" parent="0sAIdvepXm3ZQ7K2AfYi-9" source="0sAIdvepXm3ZQ7K2AfYi-16" target="0sAIdvepXm3ZQ7K2AfYi-12">
          <mxGeometry relative="1" as="geometry" />
        </mxCell>
        <mxCell id="0sAIdvepXm3ZQ7K2AfYi-16" value="Dashboard" style="whiteSpace=wrap;html=1;" vertex="1" parent="0sAIdvepXm3ZQ7K2AfYi-9">
          <mxGeometry x="50" y="390" width="120" height="60" as="geometry" />
        </mxCell>
        <mxCell id="0sAIdvepXm3ZQ7K2AfYi-49" style="edgeStyle=orthogonalEdgeStyle;rounded=0;orthogonalLoop=1;jettySize=auto;html=1;entryX=1;entryY=0.5;entryDx=0;entryDy=0;" edge="1" parent="0sAIdvepXm3ZQ7K2AfYi-9" source="0sAIdvepXm3ZQ7K2AfYi-47" target="0sAIdvepXm3ZQ7K2AfYi-34">
          <mxGeometry relative="1" as="geometry" />
        </mxCell>
        <mxCell id="0sAIdvepXm3ZQ7K2AfYi-47" value="CMS DEV" style="whiteSpace=wrap;html=1;" vertex="1" parent="0sAIdvepXm3ZQ7K2AfYi-9">
          <mxGeometry x="470" y="230" width="120" height="60" as="geometry" />
        </mxCell>
        <mxCell id="0sAIdvepXm3ZQ7K2AfYi-50" style="edgeStyle=orthogonalEdgeStyle;rounded=0;orthogonalLoop=1;jettySize=auto;html=1;" edge="1" parent="0sAIdvepXm3ZQ7K2AfYi-9" source="0sAIdvepXm3ZQ7K2AfYi-48" target="0sAIdvepXm3ZQ7K2AfYi-17">
          <mxGeometry relative="1" as="geometry" />
        </mxCell>
        <mxCell id="0sAIdvepXm3ZQ7K2AfYi-48" value="CMS Admin" style="whiteSpace=wrap;html=1;" vertex="1" parent="0sAIdvepXm3ZQ7K2AfYi-9">
          <mxGeometry x="50" y="230" width="120" height="60" as="geometry" />
        </mxCell>
        <mxCell id="0sAIdvepXm3ZQ7K2AfYi-24" style="edgeStyle=orthogonalEdgeStyle;rounded=0;orthogonalLoop=1;jettySize=auto;html=1;exitX=0.5;exitY=0;exitDx=0;exitDy=0;" edge="1" parent="0sAIdvepXm3ZQ7K2AfYi-9" source="0sAIdvepXm3ZQ7K2AfYi-14" target="0sAIdvepXm3ZQ7K2AfYi-17">
          <mxGeometry relative="1" as="geometry" />
        </mxCell>
        <mxCell id="0sAIdvepXm3ZQ7K2AfYi-12" value="" style="swimlane;startSize=0;fillColor=#d5e8d4;strokeColor=#82b366;swimlaneFillColor=#D5E8D4;" vertex="1" parent="0sAIdvepXm3ZQ7K2AfYi-9">
          <mxGeometry x="270" y="320" width="340" height="200" as="geometry" />
        </mxCell>
        <mxCell id="0sAIdvepXm3ZQ7K2AfYi-13" value="BFF" style="text;html=1;align=center;verticalAlign=middle;resizable=0;points=[];autosize=1;strokeColor=none;fillColor=none;" vertex="1" parent="0sAIdvepXm3ZQ7K2AfYi-12">
          <mxGeometry x="10" y="10" width="40" height="20" as="geometry" />
        </mxCell>
        <mxCell id="0sAIdvepXm3ZQ7K2AfYi-60" style="edgeStyle=orthogonalEdgeStyle;rounded=0;orthogonalLoop=1;jettySize=auto;html=1;" edge="1" parent="0sAIdvepXm3ZQ7K2AfYi-12" source="0sAIdvepXm3ZQ7K2AfYi-14" target="0sAIdvepXm3ZQ7K2AfYi-59">
          <mxGeometry relative="1" as="geometry" />
        </mxCell>
        <mxCell id="0sAIdvepXm3ZQ7K2AfYi-14" value="Node BFF" style="whiteSpace=wrap;html=1;" vertex="1" parent="0sAIdvepXm3ZQ7K2AfYi-12">
          <mxGeometry x="40" y="30" width="120" height="60" as="geometry" />
        </mxCell>
        <mxCell id="0sAIdvepXm3ZQ7K2AfYi-15" value="Lemon" style="whiteSpace=wrap;html=1;" vertex="1" parent="0sAIdvepXm3ZQ7K2AfYi-12">
          <mxGeometry x="40" y="110" width="120" height="60" as="geometry" />
        </mxCell>
        <mxCell id="0sAIdvepXm3ZQ7K2AfYi-59" value="Redis" style="shape=dataStorage;whiteSpace=wrap;html=1;fixedSize=1;rounded=1;" vertex="1" parent="0sAIdvepXm3ZQ7K2AfYi-12">
          <mxGeometry x="210" y="25" width="100" height="70" as="geometry" />
        </mxCell>
        <mxCell id="0sAIdvepXm3ZQ7K2AfYi-46" style="edgeStyle=orthogonalEdgeStyle;rounded=0;orthogonalLoop=1;jettySize=auto;html=1;" edge="1" parent="0sAIdvepXm3ZQ7K2AfYi-9" source="0sAIdvepXm3ZQ7K2AfYi-17" target="0sAIdvepXm3ZQ7K2AfYi-34">
          <mxGeometry relative="1" as="geometry" />
        </mxCell>
        <mxCell id="0sAIdvepXm3ZQ7K2AfYi-17" value="CMS" style="whiteSpace=wrap;html=1;" vertex="1" parent="0sAIdvepXm3ZQ7K2AfYi-9">
          <mxGeometry x="310" y="230" width="120" height="60" as="geometry" />
        </mxCell>
        <mxCell id="0sAIdvepXm3ZQ7K2AfYi-34" value="CMS DB" style="shape=dataStorage;whiteSpace=wrap;html=1;fixedSize=1;" vertex="1" parent="0sAIdvepXm3ZQ7K2AfYi-9">
          <mxGeometry x="320" y="120" width="100" height="80" as="geometry" />
        </mxCell>
        <mxCell id="0sAIdvepXm3ZQ7K2AfYi-19" value="" style="swimlane;startSize=0;swimlaneFillColor=#DAE8FC;fillColor=#dae8fc;strokeColor=#6c8ebf;" vertex="1" parent="1">
          <mxGeometry x="850" y="300" width="200" height="200" as="geometry" />
        </mxCell>
        <mxCell id="0sAIdvepXm3ZQ7K2AfYi-20" value="Tencent COS" style="text;html=1;align=center;verticalAlign=middle;resizable=0;points=[];autosize=1;strokeColor=none;fillColor=none;" vertex="1" parent="0sAIdvepXm3ZQ7K2AfYi-19">
          <mxGeometry x="10" y="10" width="90" height="20" as="geometry" />
        </mxCell>
        <mxCell id="0sAIdvepXm3ZQ7K2AfYi-32" value="Models" style="shape=dataStorage;whiteSpace=wrap;html=1;fixedSize=1;" vertex="1" parent="0sAIdvepXm3ZQ7K2AfYi-19">
          <mxGeometry x="50" y="60" width="100" height="80" as="geometry" />
        </mxCell>
        <mxCell id="0sAIdvepXm3ZQ7K2AfYi-21" style="edgeStyle=orthogonalEdgeStyle;rounded=0;orthogonalLoop=1;jettySize=auto;html=1;" edge="1" parent="1" source="0sAIdvepXm3ZQ7K2AfYi-12" target="0sAIdvepXm3ZQ7K2AfYi-19">
          <mxGeometry relative="1" as="geometry">
            <Array as="points">
              <mxPoint x="790" y="500" />
              <mxPoint x="790" y="400" />
            </Array>
          </mxGeometry>
        </mxCell>
        <mxCell id="0sAIdvepXm3ZQ7K2AfYi-22" style="edgeStyle=orthogonalEdgeStyle;rounded=0;orthogonalLoop=1;jettySize=auto;html=1;entryX=0;entryY=0.5;entryDx=0;entryDy=0;" edge="1" parent="1" source="0sAIdvepXm3ZQ7K2AfYi-12" target="0sAIdvepXm3ZQ7K2AfYi-3">
          <mxGeometry relative="1" as="geometry">
            <Array as="points">
              <mxPoint x="770" y="500" />
              <mxPoint x="770" y="180" />
            </Array>
          </mxGeometry>
        </mxCell>
        <mxCell id="0sAIdvepXm3ZQ7K2AfYi-27" value="" style="swimlane;startSize=0;swimlaneFillColor=#DAE8FC;fillColor=#dae8fc;strokeColor=#6c8ebf;" vertex="1" parent="1">
          <mxGeometry x="850" y="560" width="200" height="200" as="geometry" />
        </mxCell>
        <mxCell id="0sAIdvepXm3ZQ7K2AfYi-28" value="Lonjince Meetings" style="text;html=1;align=center;verticalAlign=middle;resizable=0;points=[];autosize=1;strokeColor=none;fillColor=none;" vertex="1" parent="0sAIdvepXm3ZQ7K2AfYi-27">
          <mxGeometry x="10" y="20" width="110" height="20" as="geometry" />
        </mxCell>
        <mxCell id="0sAIdvepXm3ZQ7K2AfYi-29" value="Meetings service" style="rounded=1;whiteSpace=wrap;html=1;" vertex="1" parent="0sAIdvepXm3ZQ7K2AfYi-27">
          <mxGeometry x="40" y="70" width="120" height="60" as="geometry" />
        </mxCell>
        <mxCell id="0sAIdvepXm3ZQ7K2AfYi-31" style="edgeStyle=orthogonalEdgeStyle;rounded=0;orthogonalLoop=1;jettySize=auto;html=1;entryX=0;entryY=0.5;entryDx=0;entryDy=0;" edge="1" parent="1" source="0sAIdvepXm3ZQ7K2AfYi-15" target="0sAIdvepXm3ZQ7K2AfYi-29">
          <mxGeometry relative="1" as="geometry">
            <Array as="points">
              <mxPoint x="790" y="540" />
              <mxPoint x="790" y="660" />
            </Array>
          </mxGeometry>
        </mxCell>
        <mxCell id="0sAIdvepXm3ZQ7K2AfYi-57" style="edgeStyle=orthogonalEdgeStyle;rounded=0;orthogonalLoop=1;jettySize=auto;html=1;entryX=1;entryY=0.5;entryDx=0;entryDy=0;" edge="1" parent="1" source="0sAIdvepXm3ZQ7K2AfYi-52" target="0sAIdvepXm3ZQ7K2AfYi-1">
          <mxGeometry relative="1" as="geometry" />
        </mxCell>
        <mxCell id="0sAIdvepXm3ZQ7K2AfYi-61" style="edgeStyle=orthogonalEdgeStyle;rounded=0;orthogonalLoop=1;jettySize=auto;html=1;entryX=0.5;entryY=1;entryDx=0;entryDy=0;" edge="1" parent="1" source="0sAIdvepXm3ZQ7K2AfYi-16" target="0sAIdvepXm3ZQ7K2AfYi-63">
          <mxGeometry relative="1" as="geometry">
            <Array as="points">
              <mxPoint x="150" y="790" />
              <mxPoint x="1250" y="790" />
            </Array>
          </mxGeometry>
        </mxCell>
        <mxCell id="0sAIdvepXm3ZQ7K2AfYi-62" style="edgeStyle=orthogonalEdgeStyle;rounded=0;orthogonalLoop=1;jettySize=auto;html=1;exitX=1;exitY=0.25;exitDx=0;exitDy=0;entryX=0.5;entryY=0;entryDx=0;entryDy=0;" edge="1" parent="1" source="0sAIdvepXm3ZQ7K2AfYi-12" target="0sAIdvepXm3ZQ7K2AfYi-51">
          <mxGeometry relative="1" as="geometry">
            <Array as="points">
              <mxPoint x="670" y="450" />
              <mxPoint x="670" y="20" />
              <mxPoint x="1390" y="20" />
            </Array>
          </mxGeometry>
        </mxCell>
      </root>
    </mxGraphModel>
  </diagram>
</mxfile>
